# xmcd
# Track frame offsets:
# 150
# 13201
# 27217
# 44300
# 58302
# 70461
# 85538
# 101757
# 114480
# 130375
# 144511
# 169783
# 184740
# 198509
# 217292
# 233269
# 252116
# 267199
#
# Disc length: 3759 seconds
# Revision: 2
# Processed by: cddbd v1.5.2PL0 Copyright (c) Steve Scherf et al.
# Submitted via: VisiTrax 2.11.2.271 - For more info visit www.synapsa.com
#
DISCID=060ead12
DTITLE=Various Artist - Promo Only Country Radio - January 2014
DYEAR=2014
DGENRE=Country
TTITLE0=Toby Keith - Shut Up and Hold On
TTITLE1=Chase Rice - Ready Set Roll @
TTITLE2=Billy Currington - We Are Tonight
TTITLE3=Thomas Rhett - Get Me Some Of That
TTITLE4=Lindsay Ell - Trippin' On Us
TTITLE5=Hank Williams Jr. - Angels Are Hard To Find
TTITLE6=Charlie Worsham - Want Me Too
TTITLE7=Jason Aldean - When She Says Baby @
TTITLE8=Craig Morgan - What Matters Most
TTITLE9=Laura Bell Bundy - Kentucky Dirty @
TTITLE10=Blake Shelton ft Pistol - Boys 'Round Here @
TTITLE11=Luke Bryan - Drink A Beer
TTITLE12=Tyler Farr - Whiskey In My Water @
TTITLE13=Eric Church - The Outsiders @
TTITLE14=Bush Hawg - More Than Corn @
TTITLE15=George Strait - I Got A Car
TTITLE16=Sheryl Crow - Callin' Me When I'm Lonely @
TTITLE17=Tony Young - Buck Fever
EXTD=
EXTT0=
EXTT1=
EXTT2=
EXTT3=
EXTT4=
EXTT5=
EXTT6=
EXTT7=
EXTT8=
EXTT9=
EXTT10=
EXTT11=
EXTT12=
EXTT13=
EXTT14=
EXTT15=
EXTT16=
EXTT17=
PLAYORDER=
